<?xml version="1.0" encoding="utf-8"?>
<!-- Generator: Adobe Illustrator 17.1.0, SVG Export Plug-In . SVG Version: 6.00 Build 0)  -->
<!DOCTYPE svg PUBLIC "-//W3C//DTD SVG 1.1//EN" "http://www.w3.org/Graphics/SVG/1.1/DTD/svg11.dtd">
<svg version="1.1" id="Layer_1" xmlns="http://www.w3.org/2000/svg" xmlns:xlink="http://www.w3.org/1999/xlink" x="0px" y="0px"
	 viewBox="0 0 1000 700" enable-background="new 0 0 1000 700" xml:space="preserve">
<g>
	<path d="M53.6,232.2c-6.5,0-9.7-3.4-9.7-10.2c0-6.8,3.2-10.2,9.7-10.2h130.9c6.5,0,9.7,3.4,9.7,10.2c0,6.8-2.5,10.2-7.5,10.2
		c-1.1,14.9-2.3,32.2-3.6,51.6c-1.2,19.5-2.6,41.7-4.2,66.8c-1.5,22.1-5.9,33.2-13.3,33.2h-1.9c-6.6,0-11.4-6.4-14.4-19.1
		c-1.8-7.4-7.9-26.6-18.3-57.6h-0.3c-2.2,8.7-5.1,16.9-8.7,24.8c-3.6,7.8-7.4,14.8-11.5,20.8c-4.1,6-8.2,10.8-12.3,14.4
		c-4.2,3.6-7.9,5.4-11.2,5.4h-0.8c-8.7,0-13.7-6.4-14.9-19.1c0-2,0.5-5.1,1.4-9.3c0.9-4.2,2.1-8.8,3.5-13.8
		c1.4-5.1,2.9-10.4,4.6-16.1c1.7-5.6,3.2-10.9,4.6-15.9c1.4-5,2.5-9.4,3.5-13.1c0.9-3.8,1.4-6.5,1.4-8.2l-16.6-44.8H53.6z
		 M96.5,232.2l16.3,46.5v1.7c0,7.4-5.7,25-17.2,52.9c9-15.1,18.5-36.6,28.5-64.5c0-1.1,0.2-2.4,0.7-3.9c0.5-1.5,1.2-2.9,2.2-4.3
		c1-1.4,2.2-2.5,3.6-3.5c1.4-0.9,3-1.4,4.8-1.4h1.7c6.8,0,11.8,6,14.9,18c0.2,0.2,2.1,14.1,5.8,41.8h0.3c0.7-12.4,1.5-25.4,2.4-39.2
		c0.8-13.7,1.9-28.5,3.2-44.1H96.5z"/>
	<path d="M184.3,232.2c-6.5,0-9.7-3.4-9.7-10.2c0-6.8,3.2-10.2,9.7-10.2h129.8c6.5,0,9.7,3.4,9.7,10.2c0,6.8-3.2,10.2-9.7,10.2
		h-19.9c13.1,13.1,19.7,27.8,19.7,44c0,10.7-2.4,20-7.2,27.8c-4.8,7.8-10.5,14.4-17.2,19.7c-6.6,5.3-13.5,9.5-20.6,12.6
		c-7.1,3.1-12.9,5.4-17.3,6.6l-10.8,2.5c0.4,0,9.7,9.3,28,28l47.9,51.8c9.2,8.7,13.8,13.1,13.8,13.3c0.7,1.3,1.1,2.8,1.1,4.4v0.8
		c0,5-2.8,8.3-8.3,10h-1.4c-3.7,0.2-8-2.5-13-8l-83.6-87.5c-6.6-6.3-11.9-10.7-15.8-13.3c-3.9-2.6-6.8-4.5-8.9-5.7
		c-2-1.2-3.3-2.2-3.9-3c-0.6-0.8-0.8-2.7-0.8-5.7c0-4.4,2.7-7.7,8-9.7c1.3,0,2-0.1,2.2-0.3c1.3,0,2.6,0.3,3.9,0.8
		c1.3,0.6,2.8,1.2,4.4,1.9c1.7,0.7,3.6,1.4,5.7,1.9c2.1,0.6,4.7,0.8,7.6,0.8h1.1c5.5,0,12-1.1,19.4-3.3c7.4-2.2,14.4-5.4,21-9.5
		s12.3-9.1,17-14.9c4.7-5.8,7.1-12.4,7.1-19.8v-4.4c0-3.9-0.9-7.7-2.6-11.6c-1.8-3.9-4-7.4-6.6-10.7c-2.7-3.2-5.7-5.9-9-7.9
		c-3.3-2-6.5-3.2-9.4-3.6h-5.3c-2.2,0-5,0.7-8.4,2.2c-3.4,1.5-6.7,3.7-10,6.6c-3.2,3-6,6.6-8.4,11.1c-2.4,4.4-3.6,9.5-3.6,15.2
		c0.9,7.6,3.8,11.3,8.6,11.3c3.3,0,6.4-1.4,9.1-4.3c2.8-2.9,4.9-7.8,6.4-14.8c2.2-4.2,5.2-6.4,8.9-6.4h1.1c4.6,0,7.8,2.9,9.7,8.6
		v0.8c0,3.5-0.8,7.4-2.4,11.6c-1.6,4.3-3.9,8.2-6.9,11.8c-3,3.6-6.7,6.7-10.9,9.3c-4.2,2.5-9.1,3.8-14.7,3.8l-1.4-0.3
		c-3.1,0-6.3-0.7-9.5-2.1c-3.2-1.4-6.2-3.4-8.9-6.1c-2.7-2.7-4.9-6-6.6-10c-1.8-4-2.6-8.6-2.6-14c0-7,1.6-13.9,4.7-20.8
		c3.1-6.8,8.2-14.1,15.2-21.9H184.3z"/>
	<path d="M313.8,232.2c-6.5,0-9.7-3.4-9.7-10.1c0-6.7,3.2-10.1,9.7-10.1H546c6.5,0,9.7,3.4,9.7,10.1c0,6.7-3.2,10.1-9.7,10.1
		l-85.8,0.3c4.6,2.4,9.9,5.3,15.9,8.7c6,3.4,12.1,7.2,18.4,11.3c6.3,4.2,12.5,8.6,18.7,13.4c6.2,4.8,11.7,9.8,16.5,14.9
		c4.8,5.2,8.7,10.4,11.6,15.8c2.9,5.4,4.4,10.7,4.4,16.1c0,12.4-7.9,28.1-23.8,47.3c-11.6,14.2-21.1,26.6-28.4,37.1
		c-7.3,10.5-13,19.6-17.2,27.1c-4.2,7.6-7,14-8.4,19.2c-1.5,5.3-2.2,9.6-2.2,13.1v0.6c0,0.9,0,2.6,0.1,5c0.1,2.4,0.2,5.4,0.4,9.1
		c-2,5.3-5.4,8-10,8h-0.6c-2.8,0-4.8-0.8-6.2-2.4c-1.4-1.6-2.4-3.5-3-5.7c-0.6-2.2-1-4.5-1.1-6.8c-0.1-2.3-0.1-4.2-0.1-5.7
		c0-23.2,13.7-51.9,41-86.1c9.4-11.8,16.7-21.3,21.9-28.5c5.2-7.2,9-12.9,11.5-17c2.5-4.2,4-7.3,4.6-9.4c0.6-2.1,0.9-4.2,1.1-6.2
		c0-14.2-32.4-38.7-97.1-73.3c-11.4,29.2-17.4,47.8-18,55.9v2.2c1.3-0.4,4.1-1.4,8.4-3.2c4.3-1.8,9.3-3.6,14.8-5.4
		c5.5-1.8,11.3-3.5,17.2-5c5.9-1.5,11.1-2.2,15.5-2.2h1.1c9.8,0,18,2.9,24.6,8.7c6.6,5.8,10,14.4,10,25.9c0,15.3-7.8,30.8-23.5,46.5
		c-18.6,15.3-37.7,23-57.3,23h-4.7c-10.5,0-20.5-2-30-6c-9.5-4-17.9-9.4-25.2-16.1c-7.3-6.7-13.1-14.4-17.4-23.2
		c-4.3-8.8-6.5-17.9-6.5-27.5v-4.2c1.3-17.9,3.3-26.8,6.1-26.8c2-2,4.6-3,7.7-3c2.4,0,4.8,0.9,7.2,2.8c2.4,1.8,3.6,4.6,3.6,8.3
		c-1.7,10.3-2.5,17.1-2.5,20.2c0,7,1.4,13.7,4.3,20.2c2.9,6.5,6.9,12.2,12,17.2c5.2,5,11.4,9,18.7,11.9c7.3,3,15.4,4.4,24.2,4.4
		c6.8,0,13.8-1.3,21-4c7.2-2.7,13.7-6.2,19.7-10.7c5.9-4.4,10.8-9.6,14.7-15.5c3.9-5.9,5.8-12.2,5.8-18.9c0-6.5-4-10.1-11.9-10.8
		c-8.5,0-24.4,4.7-47.9,14.1c-2,0.6-4.1,1-6.1,1.4c-2,0.4-3.9,0.6-5.5,0.6c-5.7,0-10.6-1.9-14.5-5.7c-4-3.8-6-10-6-18.7
		c0-3.9,1-9.2,2.9-16.1s4.5-15.3,7.6-25.2l6.9-21.1L313.8,232.2z"/>
	<path d="M673.6,373.3c0,6.1-3,10.1-9.1,11.9l-2.8,0.3c-5.7,0-9.6-3.2-11.6-9.7v-95.2L608,320.2c-2.4,1.3-4.7,1.9-6.9,1.9
		c-3.1,0-5.8-1-8-3c-2.2-2-3.3-5.2-3.3-9.4c0-3.9,2.9-8.2,8.9-13c-2-8.1-4.8-13.3-8.3-15.6c-3.5-2.3-7.7-3.6-12.5-4
		c-2,2.6-5,3.9-8.9,3.9c-7.7-1.3-11.6-5.3-11.6-11.9c0-4.1,3-8.8,9.1-14.1c22.7-23.6,36.1-36.3,40.1-38.2c4.2-3.1,8.4-4.7,12.5-4.7
		c4.1,0,8.6,2.4,13.7,7.1c5.1,4.7,10.8,11.2,17.3,19.5v-17.2c0-6.5,3.9-9.7,11.6-9.7h12.2c6.5,0,9.7,3.4,9.7,10.2
		c0,6.8-3.2,10.2-9.7,10.2h-0.3V373.3z M596.9,257.9c9,4.1,16.1,10.8,21,20.2c11.3-10.7,18.4-16.1,21.3-16.3
		c-6.5-7.4-11.4-13.1-14.9-17.2c-3.5-4.1-5.7-6.5-6.6-7.2C616.2,238.3,609.3,245.2,596.9,257.9z"/>
	<path d="M719.8,232.2v251.3c0,7.4-3.7,11.1-11.1,11.1h-0.8c-7.4,0-11.1-4.1-11.1-12.5V258.4c-1.5,0.6-3.9,0.8-7.2,0.8h-1.1
		c-8.5,0-15.4-2.8-20.8-8.3c-5.3-5.5-8-12.8-8-21.9c0-11.6,4-17.4,11.9-17.4h1.4c7,0,10.5,2.9,10.5,8.6c0,1.7-0.1,3.1-0.4,4.3
		c-0.3,1.2-0.4,2.5-0.4,4c0,5.2,2.3,7.7,6.9,7.7c4.8-0.9,7.2-3,7.2-6.4c0-1.8-0.1-3.3-0.3-4.3c-0.2-1-0.3-1.9-0.3-2.6
		c0-7.6,3.4-11.3,10.2-11.3h24.9c6.5,0,9.7,3.4,9.7,10.2c0,6.8-3.2,10.2-9.7,10.2H719.8z"/>
	<path d="M799.9,159.4h-2.5c-7.2,2.6-10.9,6.3-10.9,11.1c0,3.7,0.7,6.9,2.2,9.7c1.5,2.8,3.4,5,5.7,6.8c2.3,1.8,4.9,3.1,7.9,4
		c2.9,0.9,5.9,1.4,8.9,1.4c6.5,0,12.2-1.3,17.2-4c5-2.7,9.2-6,12.6-10.1c3.4-4.1,6-8.6,7.7-13.6c1.8-5,2.6-9.7,2.6-14.1
		c0-6.8-1.7-13-5-18.5c-3.3-5.5-7.5-10.2-12.6-14.1c-5.1-3.9-10.6-6.9-16.6-9c-6-2.1-11.6-3.2-16.7-3.2c-7.6,0-15,1.7-22.3,5
		c-7.3,3.3-13.8,7.9-19.5,13.7c-5.7,5.8-10.3,12.5-13.8,20.2c-3.5,7.7-5.3,15.7-5.3,24.2c0,15.1,5.5,29.4,16.4,42.9H721
		c-7.4,0-11.1,3.4-11.1,10.2c0,6.8,3.7,10.2,11.1,10.2h56.1c0,0.1,0.6,0,0.5,0.1c1.1-0.5,1.7-0.3,3.2-0.3c1.7,0,2.5-0.6,3.7,0.1
		c0.6,0,1.7-0.1,2.2,0c1-0.5,2.3,0.1,3.7,0.1c1.4,0,2.6-0.3,3.7,0.2c0.6-0.1,1.2-0.1,1.9-0.1c1.3,0,2.2-0.3,3-0.1
		c0.4,0,1.9,0.1,2.3,0.1c1.4,0,2-0.4,3.1-0.1c1.2-0.3,1.6,0.1,3.5,0.1c0.7,0,0.7-0.1,1.3,0c-0.3-0.5,1.5-0.2,1.5-0.2H838
		c7,0,10.5-3.4,10.5-10.2c0-6.5-3.5-9.9-10.5-10.2h-51.2c-16.2-12.9-24.4-27.2-24.4-42.9c0-5.7,1.1-11.2,3.3-16.3
		c2.2-5.2,5.1-9.7,8.7-13.6c3.5-3.9,7.5-7,11.9-9.3c4.4-2.3,8.7-3.5,13-3.5c4.6,0,8.8,0.9,12.4,2.8c3.6,1.8,6.7,4.1,9.2,6.8
		c2.5,2.7,4.4,5.6,5.6,8.7c1.2,3.1,1.8,5.9,1.8,8.3c0,3.1-0.7,5.9-1.9,8.3c-1.3,2.4-2.8,4.4-4.6,6c-1.8,1.6-3.6,2.8-5.6,3.6
		c-1.9,0.8-3.5,1.2-4.6,1.2h-0.8v-4.2C808.7,162.1,805.1,159.4,799.9,159.4z"/>
</g>
<path display="none" fill="#FFFFFF" d="M717.7,546.5c0.1,0,0.1,0.1,0.2,0.1c-0.9-4.4-1.4-8.7-1.3-13.1c0,0-0.1,0-0.1,0
	c-0.2,1.2-0.5,2.3-1.1,3.3c-0.7,1.5-2,2.8-3.6,3.6C715,541.2,717,543.7,717.7,546.5z"/>
<path display="none" d="M921.9,305.9c0.3,0.1,0.9,0.4,1.4,0.7c0.9,0.6,1.2,1.3,0.8,2.3c-0.3,0.7-0.6,1.4-1.1,1.9
	c-2,2.3-4.5,3.9-7,5.4c-3.5,2.1-7.2,3.8-11,5.3c-4.2,1.6-8.5,3.1-12.9,4.1c-3.5,0.8-7.1,1.6-10.7,1.7c-1.5,0.1-3,0-4.4-0.2
	c-0.7-0.1-1.3-0.4-2-0.7c-1.1-0.5-1.6-1.7-1-2.7c0.4-0.8,0.9-1.6,1.5-2.2c1.7-1.7,3.5-3.1,5.6-4.3c3.1-1.8,6.2-3.4,9.5-4.8
	c4.4-1.8,8.8-3.4,13.4-4.6c3.7-1,7.4-1.8,11.2-2.2C917.3,305.4,919.5,305.4,921.9,305.9z"/>
<path display="none" d="M929.2,387c-3.4,0.6-6.5,0.6-9.6,0.5c-4.7-0.2-9.4-0.8-14.1-1.7c-5.5-1.1-10.9-2.5-16-4.8
	c-1.7-0.8-3.3-1.8-4.9-2.7c-0.6-0.3-1-0.8-1.4-1.4c-1.3-1.6-0.9-2.9,0.8-3.9c1.8-1,3.9-1.4,6-1.5c7.7-0.7,15.3,0.3,22.8,1.8
	c4.4,0.9,8.7,2.1,12.8,3.7c2.3,0.9,4.5,1.9,6.5,3.4c0.7,0.5,1.3,1.1,1.8,1.7c0.8,1.1,0.7,2.4-0.6,3.3
	C931.9,386.4,930.4,386.8,929.2,387z"/>
<path display="none" d="M902.5,449.8c-2.8-0.2-5.4-1-7.9-2c-7.4-2.9-14.3-6.9-20.6-11.7c-2.5-1.9-4.8-3.9-7-6.1
	c-1.6-1.6-3-3.3-4-5.3c-1.1-2.5-0.2-4.1,2.5-4.2c2.7-0.1,5.3,0.6,7.8,1.6c9.5,3.5,18,8.7,25.7,15.3c2.1,1.8,4.1,3.7,5.7,6
	c0.6,0.9,1.2,1.9,1.6,3c0.6,1.7,0.1,3-2,3.4C903.7,449.8,903.1,449.8,902.5,449.8z"/>
<path display="none" d="M731.8,480.6c0.1-2.9,0.8-5.5,1.7-8.1c3.1-9.1,7.9-17.3,13.9-24.7c1.7-2.1,3.6-4.1,5.9-5.7
	c0.8-0.5,1.7-1,2.6-1.3c1.3-0.4,2.4,0.2,2.9,1.5c0.6,1.7,0.3,3.3,0.1,5c-0.8,4.3-2.3,8.4-4.2,12.4c-1.4,2.8-2.8,5.7-4.5,8.4
	c-2.3,3.9-5,7.7-8.1,11.1c-1.7,1.9-3.6,3.7-6,4.9c-0.1,0.1-0.3,0.1-0.4,0.2c-2,0.8-3.4,0-3.8-2.1C731.8,481.6,731.8,481,731.8,480.6
	z"/>
<path display="none" d="M835,484.4c-0.1,1.8-0.1,4.4-1,6.9c-0.3,0.7-0.6,1.5-1,2.1c-0.9,1.2-2.1,1.4-3.4,0.7c-1.1-0.6-2-1.5-2.7-2.5
	c-2.3-3.1-3.7-6.6-4.8-10.2c-1.6-4.9-2.5-10-2.8-15.2c-0.1-2.8-0.1-5.6,0.6-8.4c0.2-0.9,0.6-1.9,1.1-2.7c1-1.6,2.5-1.9,4.1-0.9
	c1.5,0.9,2.4,2.3,3.3,3.8c2.9,4.8,4.5,10.2,5.6,15.7C834.6,477,835,480.3,835,484.4z"/>
<path display="none" fill="#FFF200" d="M803.2,296.1c0.6,1.5,1,3,1.6,4.5c1.3,3.2,2.8,6.3,4.7,9.1c1.5,2.3,3,4.6,4.7,6.8
	c1.7,2.2,3.5,4.3,5.2,6.4c1.4,1.7,2.8,3.3,4.3,4.9c1.6,1.8,3.2,3.7,4.8,5.5c1.2,1.4,2.4,2.9,3.6,4.4c1.5,2,3,3.9,4.4,6
	c1.8,2.5,3.2,5.2,4.5,8c1.6,3.7,2.7,7.7,3.4,11.7c0.4,2.6,0.8,5.2,1.1,7.7c0.6,5.3,0.2,10.6-1,15.9c-0.6,2.8-1.6,5.5-2.8,8.1
	c-1.9,3.8-4.3,7.4-7.2,10.5c-1.8,1.9-3.7,3.7-5.7,5.3c-2.3,1.7-4.7,3.3-7.2,4.6c-4,2-8.1,3.3-12.5,4c-3.4,0.5-6.8,0.6-10.3,0.3
	c-4.7-0.4-9.2-1.6-13.4-3.4c-4.1-1.8-7.8-4.2-11.2-7.1c-2.7-2.3-4.9-5-6.9-7.9c-2.4-3.6-4.3-7.5-5.6-11.7c-0.9-2.8-1.3-5.7-1.7-8.5
	c-0.2-1.3-0.4-2.7-0.6-4c-0.4-2.9-0.3-5.9,0-8.8c0.5-4.6,1.7-9.1,3-13.6c2.3-7.9,4.6-15.8,6.3-23.8c1.2-5.5,2.2-11.1,3-16.6
	c1.1-7.5,1.8-15,2-22.7c0-1.8,0-3.7-0.1-5.5c-0.1-1.2-0.2-2.3-0.7-3.4c10.9-19.1,28.2-13.4,28.5-1.3c-0.1,3.9,0.3,7.7,1.1,11.5
	C801.7,292.6,802.7,296.8,803.2,296.1z"/>
<path d="M787.2,243.3c-4.5,0.3-8.9,0.3-13.3-0.5c-2-0.3-3.9-0.9-5.7-1.8c-0.6-0.3-1.1-0.8-1.7-1.2c-1-0.8-1.2-2.4-0.3-3.6
	c0.9-1.3,2.2-2.2,3.7-2.9c5.5-2.5,11.3-3.5,17.3-3.7c3.2-0.1,6.5,0,9.7,0.6c1.7,0.3,3.3,0.9,4.9,1.4c1,0.3,1.9,0.9,2.6,1.7
	c0.9,1,1,2.1,0.4,3.2c-0.5,1-1.4,1.6-2.3,2.2c-2.5,1.6-5.3,2.6-8.1,3.2C791.9,242.5,789.5,242.8,787.2,243.3z"/>
<path d="M803.5,254.2c1.2-0.5,3.3-2.5,3.7-4.2c-0.1-0.5-0.2-0.9-0.3-1.4c-1-1.4-3.2-2.8-3.3-2.6c-0.2,0-0.3,0-0.4-0.1
	c-3.9-1.1-7.9-1.2-12-0.9c-3.6,0.3-7.2,0.7-10.8,1.6c-3.5,0.9-7,2-10.1,3.8c-1.2,0.7-2.3,1.5-3.2,2.6c-1.2,1.5-1,3,0.5,4.2
	c0.6,0.5,1.4,0.8,2.1,1.1c0.5,0.2,2,1.1,1.8,0.7C782.6,260.7,793.2,259.1,803.5,254.2z"/>
<g>
	<path d="M869.1,349c-1.9-5.7-4.8-11.2-8.4-16.5c-1.7-2.5-3.5-4.8-5.5-7.3c-1.4-1.7-2.9-3.5-4.6-5.3c-2-2.1-4.1-4.2-6.1-6.2
		l-0.5-0.5c-1.1-1.1-2.2-2.2-3.3-3.3c-1.5-1.5-3.1-3.1-4.6-4.6l-0.5-0.5c-2.5-2.6-5.1-5.2-7.5-7.9c-2.1-2.3-4.1-5-6-7.9
		c-2.1-3.2-3.8-6.6-5.2-10.1c-1.8-4.8-3-10.1-3.7-16.9c-0.2-1.6-0.3-2.8-0.5-3.9c-0.4-4.1-3.4-7.7-6.2-7.9l-1.7-0.1
		c-0.9,0-2,1.9-3.7,4.1l-1.2,2c0,0.1-0.1,0.1-0.1,0.2l-1.4,4.4c0,0.1-0.1,0.4-0.2,0.9l-0.4,1.2l-0.3,3.6l0,3.3l-0.2,0.1
		c-0.4,2.3-0.1,6.2-0.1,6.2l0.4,1.4l1.6,6.2c0,0.2,0,0.4,0.1,0.6l0.1,1l0.4,0.9c0.1,0.2,0.2,0.5,0.2,0.8l0.2,1c0.9,2.8,2,3.9,2.6,6
		c0.6,1.2,0.2,0.8,0.8,1.9l0.7,1.3c1.2,2.6,2.7,5,4.3,7.4c1.6,2.4,3.6,5.3,5.6,8c1.7,2.2,3.5,4.3,5.3,6.4l0.9,1.1
		c1.2,1.4,2.5,2.8,3.7,4.2l3.2,3.5c1.2,1.3,2.4,2.7,3.6,4c1.1,1.3,2.6,3,4,4.7c1.5,1.9,3.3,4.2,4.9,6.5c3,4.1,5.3,9.1,7.3,15
		c0.1,0.3,0.2,0.7,0.2,1.1c0.2,1.6,0.5,3.3,0.8,4.9c0.4,2.6,0.9,5,1.1,7.4c0.8,6.4,0.1,13.2-1.8,20.2c0,0,0,0.1,0,0.1
		c-2.1,5.5-5.1,10.3-8.7,14.4c-1.9,2.1-3.8,3.9-5.7,5.5c-2.2,1.8-4.6,3.3-7.2,4.7c-3.8,2-8,3.4-12.4,4.2c-3.3,0.6-6.8,0.7-10.2,0.5
		c-4.7-0.4-9.2-1.5-13.5-3.3c-4-1.7-7.8-4.1-11.3-7c-2.5-2.1-4.8-4.7-6.9-7.8c-3.6-5.3-6-11.1-7.3-17.9l0-0.2
		c-0.1-1.7-0.4-3.3-0.6-4.8c-0.1-0.7-0.2-1.4-0.3-2.1c-0.4-2.6-0.4-5.4-0.1-8.7c0.4-4.9,1.8-9.8,3.1-14.4c2.3-8.1,4.9-17.7,6.9-27.6
		c1.3-6.6,2.4-13.1,3.3-19.4c1.5-11.1,2.1-21,2.1-30.2c0-0.4,0-0.8-0.1-1.2c-0.1-0.5-0.1-0.9-0.1-1.4c-0.1-1.2-0.2-2.7-0.6-4.2
		c0,0,0-0.1,0-0.1l-0.2-1.6c0,0,0-0.8,0-0.8l-0.4-1.7l-1.1-3.8c-0.2-0.3-1.1-2.8-1.5-2.7l-0.9-1.3c-1.2-1.7-3.8-1.6-4.8,0.2
		l-0.9,1.5c-1,0.9-1.5,5.3-1.7,5.9c-0.1,0.2-0.1,1.4-0.2,1.7c-0.7,2.3-1,3.9-2,6.3c-0.1,0.2-0.2,0.3-0.3,0.4
		c-0.8,3.2-1.4,6.2-2.1,9.1c-0.6,2.6-1.1,5.2-1.7,7.8c-0.7,3.3-1.4,6.6-2.1,9.9c-2.1,9.2-4,16.8-6.2,24l-0.7,2.1
		c-1.4,4.5-2.8,9.2-4.3,13.7l-1,2.9c-1.6,4.6-3.2,9.4-4.4,14.4c-1,4.3-1.7,8.2-2,11.9c-0.3,3.8-0.2,7.6,0.2,11.4
		c0.5,4.7,1.5,9.3,3,13.7c1.1,3.2,2.5,6.5,4.1,9.7c1.7,3.2,3.6,6.3,5.8,9.2c2.4,3.2,5.2,6.2,8.2,9c6,5.5,12.9,9.6,21.2,12.8
		c4.8,1.8,10,3.1,15.3,3.8c3.1,0.4,6.2,0.6,9.2,0.5c2.8,0,5.6-0.2,8.4-0.6c6.3-0.9,12.4-2.7,18.3-5.4c4.1-1.9,7.9-4.1,11.4-6.6
		c4.3-3.1,8.2-6.7,11.7-10.6c4.6-5.2,8.5-11.2,11.3-17.7c3.3-7.5,5.1-15.5,5.6-23.9C873.3,366.5,872.1,357.6,869.1,349z"/>
	<path d="M804.5,267c0.6-0.9,0.6-1.6,0.8-2.9c-0.1-0.2-1.6-1.6-2.9-2c-1.2-0.7-4.1-1.5-10.1-1.3c-3.1,0.1-6.2,0.5-9.2,1.4
		c-3.4,1-6.6,2.2-9.3,4.5c-0.7,0.6-1.3,1.3-1.7,2c-1,1.5-0.7,3,0.7,4.2c1.4,1.2,3.1,1.7,4.8,2c3.3,0.6,6.5,0.6,9.8,0.1
		c3.6-0.5,7.1-1.4,10.4-3c1.8-0.9,3.2-2.3,4.9-3.5C803.7,267.9,804.4,266.8,804.5,267z"/>
</g>
</svg>
